<svg width="404" height="411" viewBox="0 0 404 411" fill="none" xmlns="http://www.w3.org/2000/svg">
<path d="M396.748 398.326C396.748 405.33 310.131 411 203.297 411C96.4616 411 9.83594 405.33 9.83594 398.326C9.83594 391.321 96.4524 385.651 203.297 385.651C310.141 385.651 396.748 391.33 396.748 398.326Z" fill="#F5F5F5"/>
<path d="M262.637 28.731H65.1199C61.6672 28.731 58.8682 31.5309 58.8682 34.9849V307.555C58.8682 311.009 61.6672 313.809 65.1199 313.809H262.637C266.09 313.809 268.889 311.009 268.889 307.555V34.9849C268.889 31.5309 266.09 28.731 262.637 28.731Z" fill="#407BFF"/>
<path opacity="0.5" d="M262.637 28.731H65.1199C61.6672 28.731 58.8682 31.5309 58.8682 34.9849V307.555C58.8682 311.009 61.6672 313.809 65.1199 313.809H262.637C266.09 313.809 268.889 311.009 268.889 307.555V34.9849C268.889 31.5309 266.09 28.731 262.637 28.731Z" fill="#91B3FF"/>
<path d="M75.3077 36.5137H66.0459V306.564L260.238 308.092L265.601 301.903L260.905 47.1593L75.3077 36.5137Z" fill="#EBEBEB"/>
<path d="M265.601 301.903H73.5943V36.5137H66.0459V308.092H260.238L265.601 301.903Z" fill="#E0E0E0"/>
<path opacity="0.2" d="M66.0459 308.092L73.5943 301.903H265.601L260.238 308.092H66.0459Z" fill="black"/>
<path d="M282.143 293.185H92.4144C73.8908 250.501 70.6584 141.914 73.5944 36.5415H261.97C260.433 141.849 264.147 236.436 282.143 293.185Z" fill="white" stroke="#263238" stroke-miterlimit="10"/>
<path opacity="0.2" d="M130.156 28.7311V49.3552L199.314 49.7165L199.212 45.9271L165.999 27.7119L130.156 28.7311Z" fill="black"/>
<path d="M141.298 24.3765H195.545C197.414 24.3765 199.207 25.1193 200.529 26.4416C201.85 27.7639 202.593 29.5572 202.593 31.4272V45.9271H134.296V31.4179C134.299 29.5576 135.036 27.7735 136.348 26.4546C137.659 25.1357 139.439 24.3887 141.298 24.3765Z" fill="#263238"/>
<path d="M155.793 26.0625L153.191 17.7239C153.138 17.5795 153.122 17.4243 153.145 17.2723C153.167 17.1203 153.227 16.9762 153.319 16.8531C153.411 16.7299 153.532 16.6316 153.671 16.5669C153.81 16.5022 153.963 16.4731 154.117 16.4824H184.681C184.837 16.4711 184.994 16.4998 185.137 16.5659C185.279 16.632 185.403 16.7333 185.495 16.8602C185.588 16.9872 185.647 17.1356 185.666 17.2916C185.686 17.4475 185.665 17.6059 185.607 17.7517L182.55 26.498C182.488 26.6915 182.363 26.8589 182.196 26.9744C182.028 27.09 181.827 27.1472 181.624 27.1373L156.701 26.7481C156.495 26.7511 156.294 26.6853 156.129 26.5611C155.965 26.4369 155.847 26.2615 155.793 26.0625Z" fill="#263238"/>
<path d="M81.9116 24.6914H130.156" stroke="#91B3FF" stroke-width="0.75" stroke-linejoin="round"/>
<path d="M79.1793 24.6914H71.6772" stroke="#91B3FF" stroke-width="0.75" stroke-linejoin="round"/>
<path d="M144.762 89.9546L144.688 76.2422L138.038 87.3603H134.787L128.174 76.5665V89.9083H121.404V64.0771H127.433L136.519 79.0125L145.41 64.0771H151.44L151.505 89.9546H144.762Z" fill="#2563EB"/>
<path d="M155.33 77.0115C155.33 69.2566 161.424 63.5586 169.704 63.5586C177.984 63.5586 184.079 69.2566 184.079 77.0115C184.079 84.7664 177.984 90.4737 169.704 90.4737C161.424 90.4737 155.33 84.7757 155.33 77.0115ZM176.688 77.0115C176.688 72.5457 173.622 69.5994 169.704 69.5994C165.787 69.5994 162.721 72.5272 162.721 77.0115C162.721 81.4958 165.787 84.4236 169.704 84.4236C173.622 84.4236 176.688 81.5329 176.688 77.0115Z" fill="#2563EB"/>
<path d="M187.7 78.4195V64.0771H195.017V78.1972C195.017 82.6351 196.869 84.4048 199.935 84.4048C203 84.4048 204.816 82.6351 204.816 78.1972V64.0771H212.021V78.4195C212.021 86.1466 207.511 90.4642 199.86 90.4642C192.21 90.4642 187.7 86.1651 187.7 78.4195Z" fill="#2563EB"/>
<path d="M96.6287 106.975H243.28C243.464 106.975 243.641 106.902 243.771 106.771C243.902 106.641 243.975 106.464 243.975 106.28C243.975 106.096 243.902 105.919 243.771 105.788C243.641 105.658 243.464 105.585 243.28 105.585H96.6287C96.4445 105.585 96.2678 105.658 96.1375 105.788C96.0073 105.919 95.9341 106.096 95.9341 106.28C95.9341 106.464 96.0073 106.641 96.1375 106.771C96.2678 106.902 96.4445 106.975 96.6287 106.975Z" fill="#263238"/>
<path d="M96.6287 120.011H243.28C243.464 120.011 243.641 119.938 243.771 119.807C243.902 119.677 243.975 119.5 243.975 119.316C243.975 119.132 243.902 118.955 243.771 118.825C243.641 118.694 243.464 118.621 243.28 118.621H96.6287C96.4445 118.621 96.2678 118.694 96.1375 118.825C96.0073 118.955 95.9341 119.132 95.9341 119.316C95.9341 119.5 96.0073 119.677 96.1375 119.807C96.2678 119.938 96.4445 120.011 96.6287 120.011Z" fill="#263238"/>
<path d="M96.6287 133.056H243.28C243.464 133.056 243.641 132.983 243.771 132.852C243.902 132.722 243.975 132.545 243.975 132.361C243.975 132.177 243.902 132 243.771 131.87C243.641 131.739 243.464 131.666 243.28 131.666H96.6287C96.4445 131.666 96.2678 131.739 96.1375 131.87C96.0073 132 95.9341 132.177 95.9341 132.361C95.9341 132.545 96.0073 132.722 96.1375 132.852C96.2678 132.983 96.4445 133.056 96.6287 133.056Z" fill="#263238"/>
<path d="M96.6287 146.092H243.28C243.464 146.092 243.641 146.019 243.771 145.888C243.902 145.758 243.975 145.581 243.975 145.397C243.975 145.213 243.902 145.036 243.771 144.906C243.641 144.775 243.464 144.702 243.28 144.702H96.6287C96.4445 144.702 96.2678 144.775 96.1375 144.906C96.0073 145.036 95.9341 145.213 95.9341 145.397C95.9341 145.581 96.0073 145.758 96.1375 145.888C96.2678 146.019 96.4445 146.092 96.6287 146.092Z" fill="#263238"/>
<path d="M96.6287 160.129H243.28C243.464 160.129 243.641 160.055 243.771 159.925C243.902 159.795 243.975 159.618 243.975 159.434C243.975 159.249 243.902 159.073 243.771 158.942C243.641 158.812 243.464 158.739 243.28 158.739H96.6287C96.4445 158.739 96.2678 158.812 96.1375 158.942C96.0073 159.073 95.9341 159.249 95.9341 159.434C95.9341 159.618 96.0073 159.795 96.1375 159.925C96.2678 160.055 96.4445 160.129 96.6287 160.129Z" fill="#263238"/>
<path d="M129.035 181.503H226.849C227.034 181.503 227.21 181.43 227.341 181.3C227.471 181.169 227.544 180.992 227.544 180.808C227.544 180.624 227.471 180.447 227.341 180.317C227.21 180.187 227.034 180.113 226.849 180.113H129.035C128.851 180.113 128.675 180.187 128.544 180.317C128.414 180.447 128.341 180.624 128.341 180.808C128.341 180.992 128.414 181.169 128.544 181.3C128.675 181.43 128.851 181.503 129.035 181.503Z" fill="#263238"/>
<path d="M118.949 185.515H108.141L108.836 186.21V175.407L108.141 176.102H118.949L118.255 175.407V186.228C118.255 186.413 118.328 186.589 118.458 186.72C118.589 186.85 118.765 186.923 118.949 186.923C119.134 186.923 119.31 186.85 119.441 186.72C119.571 186.589 119.644 186.413 119.644 186.228V175.407C119.642 175.223 119.568 175.048 119.438 174.918C119.308 174.788 119.133 174.714 118.949 174.712H108.141C107.957 174.714 107.782 174.788 107.652 174.918C107.523 175.048 107.449 175.223 107.446 175.407V186.228C107.449 186.412 107.523 186.587 107.652 186.717C107.782 186.847 107.957 186.921 108.141 186.923H118.949C119.136 186.923 119.315 186.849 119.447 186.717C119.579 186.585 119.653 186.406 119.653 186.219C119.653 186.032 119.579 185.853 119.447 185.721C119.315 185.589 119.136 185.515 118.949 185.515Z" fill="#263238"/>
<path d="M130.981 202.748H228.767C228.951 202.748 229.128 202.675 229.258 202.545C229.388 202.414 229.462 202.238 229.462 202.053C229.462 201.869 229.388 201.692 229.258 201.562C229.128 201.432 228.951 201.358 228.767 201.358H130.981C130.797 201.358 130.62 201.432 130.49 201.562C130.359 201.692 130.286 201.869 130.286 202.053C130.286 202.238 130.359 202.414 130.49 202.545C130.62 202.675 130.797 202.748 130.981 202.748Z" fill="#263238"/>
<path d="M120.894 206.76H110.086L110.78 207.455V196.651L110.086 197.346H120.894L120.2 196.651V207.455C120.2 207.639 120.273 207.816 120.403 207.946C120.533 208.076 120.71 208.149 120.894 208.149C121.079 208.149 121.255 208.076 121.385 207.946C121.516 207.816 121.589 207.639 121.589 207.455V196.651C121.587 196.468 121.513 196.293 121.383 196.163C121.253 196.033 121.078 195.959 120.894 195.957H110.086C109.902 195.959 109.727 196.033 109.597 196.163C109.467 196.293 109.394 196.468 109.391 196.651V207.455C109.394 207.638 109.467 207.813 109.597 207.943C109.727 208.073 109.902 208.147 110.086 208.149H120.894C121.079 208.149 121.255 208.076 121.385 207.946C121.516 207.816 121.589 207.639 121.589 207.455C121.589 207.27 121.516 207.093 121.385 206.963C121.255 206.833 121.079 206.76 120.894 206.76Z" fill="#263238"/>
<path d="M134.296 223.724H232.129C232.313 223.724 232.49 223.651 232.62 223.521C232.75 223.39 232.823 223.214 232.823 223.029C232.823 222.845 232.75 222.668 232.62 222.538C232.49 222.408 232.313 222.334 232.129 222.334H134.296C134.112 222.334 133.935 222.408 133.805 222.538C133.675 222.668 133.602 222.845 133.602 223.029C133.602 223.214 133.675 223.39 133.805 223.521C133.935 223.651 134.112 223.724 134.296 223.724Z" fill="#263238"/>
<path d="M124.229 227.736H113.42L114.115 228.431V217.628L113.42 218.323H124.229L123.534 217.628V228.431C123.534 228.615 123.607 228.792 123.738 228.922C123.868 229.053 124.045 229.126 124.229 229.126C124.413 229.126 124.59 229.053 124.72 228.922C124.85 228.792 124.923 228.615 124.923 228.431V217.628C124.921 217.444 124.847 217.269 124.717 217.139C124.588 217.009 124.412 216.936 124.229 216.933H113.42C113.237 216.936 113.061 217.009 112.932 217.139C112.802 217.269 112.728 217.444 112.726 217.628V228.431C112.728 228.615 112.802 228.79 112.932 228.92C113.061 229.05 113.237 229.124 113.42 229.126H124.229C124.413 229.126 124.59 229.053 124.72 228.922C124.85 228.792 124.923 228.615 124.923 228.431C124.923 228.247 124.85 228.07 124.72 227.94C124.59 227.809 124.413 227.736 124.229 227.736Z" fill="#263238"/>
<path d="M109.04 275.173C113.458 272.627 117.322 269.222 120.404 265.158C121.728 263.397 123.099 261.155 122.738 258.848C122.596 257.952 122.151 257.133 121.476 256.527C120.801 255.921 119.939 255.566 119.033 255.522C114.949 255.263 112.17 259.117 111.8 262.804C111.612 264.776 111.958 266.763 112.8 268.555C113.643 270.348 114.951 271.882 116.588 272.996C120.413 275.507 125.479 275.507 129.629 273.839C134.028 272.069 137.399 268.456 139.742 264.417C140.826 262.564 142.178 260.256 142.382 258.051C142.549 256.254 141.456 254.633 139.483 254.873C137.381 255.142 135.584 257.088 134.556 258.82C133.484 260.623 132.969 262.702 133.074 264.796C133.298 267.142 134.327 269.337 135.987 271.008C137.647 272.68 139.834 273.725 142.177 273.965C144.52 274.205 146.873 273.626 148.837 272.326C150.801 271.026 152.255 269.086 152.95 266.835C153.209 265.973 151.866 265.612 151.607 266.464C151.235 267.772 150.564 268.977 149.649 269.982C148.733 270.988 147.597 271.768 146.329 272.26C145.061 272.752 143.697 272.944 142.343 272.82C140.988 272.696 139.681 272.26 138.524 271.546C137.367 270.832 136.391 269.859 135.673 268.704C134.954 267.549 134.514 266.243 134.385 264.888C134.256 263.534 134.443 262.168 134.931 260.899C135.418 259.629 136.194 258.489 137.195 257.57C137.809 256.916 138.591 256.445 139.455 256.208C140.909 255.939 141.058 257.375 140.845 258.403C140.322 260.265 139.519 262.037 138.464 263.657C134.713 270.142 127.461 275.525 119.672 272.922C118.052 272.393 116.603 271.441 115.474 270.164C114.346 268.887 113.579 267.331 113.254 265.658C112.652 262.665 113.522 258.904 116.458 257.421C118.227 256.495 120.895 256.606 121.321 258.996C121.747 261.387 119.894 263.546 118.542 265.186C115.72 268.724 112.269 271.711 108.363 273.997C108.204 274.09 108.088 274.243 108.041 274.422C107.994 274.601 108.02 274.791 108.113 274.951C108.207 275.111 108.36 275.227 108.539 275.274C108.717 275.321 108.908 275.294 109.067 275.201L109.04 275.173Z" fill="#407BFF"/>
<path d="M221.793 269.466C220.237 263.657 215.217 256.615 218.653 250.547C220.07 248.045 223.284 246.303 226.007 247.98C229.554 250.195 227.359 254.531 225.081 256.717C224.981 256.828 224.919 256.968 224.904 257.116C224.889 257.265 224.921 257.414 224.996 257.543C225.071 257.672 225.186 257.774 225.322 257.833C225.459 257.893 225.611 257.908 225.757 257.875C229.813 256.949 234.398 260.386 234.315 264.648C234.231 268.91 229.591 272.19 225.544 271.134L225.96 272.153C228.443 268.753 232.546 267.205 236.148 265.287C238.825 263.861 241.705 262.128 243.65 259.728C244.036 259.317 244.337 258.834 244.535 258.306C244.734 257.778 244.827 257.216 244.808 256.652C244.814 256.38 244.755 256.11 244.638 255.864C244.521 255.618 244.348 255.403 244.133 255.236C243.918 255.068 243.667 254.954 243.4 254.9C243.133 254.847 242.857 254.857 242.595 254.929C240.159 255.411 240.159 258.505 240.381 260.433C240.733 263.37 241.548 266.473 243.947 268.401C245.038 269.371 246.428 269.94 247.887 270.012C249.346 270.085 250.785 269.657 251.968 268.799C254.005 267.354 256.543 264.815 256.478 262.1C256.452 261.535 256.253 260.991 255.909 260.541C255.565 260.092 255.092 259.758 254.553 259.584C254.014 259.411 253.435 259.407 252.894 259.571C252.352 259.736 251.874 260.063 251.523 260.507C249.504 263.37 253.449 267.085 255.644 268.401C256.392 268.845 257.225 269.126 258.089 269.226C258.953 269.326 259.828 269.242 260.657 268.979C261.486 268.717 262.251 268.282 262.9 267.703C263.549 267.124 264.069 266.415 264.425 265.621C264.786 264.815 263.591 264.102 263.23 264.917C262.98 265.525 262.608 266.076 262.137 266.535C261.666 266.993 261.105 267.35 260.49 267.583C259.875 267.816 259.219 267.919 258.562 267.888C257.906 267.857 257.262 267.69 256.673 267.4C254.987 266.473 251.986 264.092 252.458 261.841C252.509 261.59 252.629 261.358 252.806 261.173C252.982 260.987 253.208 260.856 253.456 260.794C253.705 260.732 253.966 260.742 254.209 260.822C254.452 260.902 254.667 261.05 254.829 261.248C255.45 262.119 254.894 263.388 254.44 264.185C253.375 266.092 251.721 267.604 249.726 268.493C247.114 269.485 244.169 267.372 243.021 265.111C242.165 263.26 241.708 261.249 241.678 259.21C241.595 258.424 241.723 257.631 242.048 256.912C242.124 256.769 242.227 256.642 242.353 256.54C242.479 256.438 242.624 256.363 242.78 256.319C243.363 256.152 243.373 256.319 243.437 256.847C243.669 258.765 240.807 260.683 239.501 261.619C234.713 265.028 228.387 266.557 224.784 271.467C224.731 271.559 224.699 271.661 224.691 271.767C224.683 271.872 224.699 271.978 224.739 272.077C224.778 272.175 224.839 272.263 224.918 272.334C224.996 272.405 225.09 272.457 225.192 272.486C230.1 273.765 235.648 269.827 235.722 264.657C235.796 259.488 230.341 255.392 225.405 256.541L226.081 257.709C228.137 255.763 229.989 252.798 229.128 249.861C228.738 248.658 227.958 247.62 226.911 246.911C225.864 246.203 224.61 245.865 223.349 245.951C222.053 246.081 220.814 246.546 219.752 247.299C218.69 248.053 217.842 249.07 217.291 250.25C216.209 252.678 215.927 255.388 216.486 257.987C217.208 262.119 219.422 265.816 220.505 269.846C220.566 270.009 220.686 270.143 220.841 270.222C220.995 270.302 221.174 270.32 221.342 270.273C221.51 270.226 221.654 270.119 221.746 269.971C221.838 269.823 221.871 269.646 221.839 269.475L221.793 269.466Z" fill="#263238"/>
<path d="M156.932 23.9869H183.476C183.661 23.9869 183.837 23.9137 183.967 23.7834C184.098 23.6531 184.171 23.4763 184.171 23.2921C184.171 23.1078 184.098 22.931 183.967 22.8007C183.837 22.6704 183.661 22.5972 183.476 22.5972H156.932C156.748 22.5972 156.571 22.6704 156.441 22.8007C156.31 22.931 156.237 23.1078 156.237 23.2921C156.237 23.4763 156.31 23.6531 156.441 23.7834C156.571 23.9137 156.748 23.9869 156.932 23.9869Z" fill="black"/>
<path opacity="0.2" d="M226.368 28.3143C226.368 28.3143 223.867 68.5434 233.573 86.3602C243.28 104.177 269.435 119.316 269.435 119.316V26.73L226.368 28.3143Z" fill="black"/>
<path d="M64.6567 263.592C50.94 279.63 46.9481 303.367 54.6447 323.019C63.1841 315.393 69.2042 303.766 69.584 293.593C69.9637 283.42 67.2963 273.413 64.6567 263.592Z" fill="#2563EB"/>
<path d="M62.267 324.872C57.5916 332.07 55.4022 340.603 56.0338 349.165C63.4432 346.589 69.9265 338.213 73.8905 331.413C77.8546 324.612 79.994 316.978 81.9853 309.38C73.8993 312.254 66.9746 317.694 62.267 324.872Z" fill="#2563EB"/>
<path d="M60.4885 291.582C54.9758 311.362 52.1717 331.799 52.1528 352.334C52.1528 358.226 52.3875 364.113 52.8567 369.993C52.8567 370.438 53.5884 370.438 53.5514 369.993C51.9462 349.435 53.1646 328.755 57.1727 308.528C58.2841 302.889 59.6148 297.302 61.1646 291.768C61.18 291.681 61.1626 291.592 61.1157 291.518C61.0688 291.443 60.9958 291.389 60.9111 291.366C60.8264 291.343 60.7361 291.352 60.6578 291.392C60.5796 291.432 60.5192 291.5 60.4885 291.582Z" fill="#263238"/>
<path d="M53.1719 355.891C58.8825 342.547 66.1178 329.909 74.7334 318.229C75.002 317.867 74.4 317.524 74.1406 317.877C65.4877 329.605 58.2271 342.3 52.5051 355.706C52.3291 356.114 53.0052 356.299 53.1719 355.891Z" fill="#263238"/>
<path d="M45.1326 335.98C49.0264 341.984 50.851 349.097 50.3284 356.234C44.1508 354.084 38.7049 347.108 35.4354 341.41C32.166 335.712 30.3507 329.365 28.6836 323.037C35.4328 325.438 41.2102 329.984 45.1326 335.98Z" fill="#2563EB"/>
<path d="M53.0051 360.913C48.3076 349.995 42.3588 339.66 35.278 330.116C35.0186 329.763 34.4166 330.116 34.6852 330.468C41.734 339.96 47.6579 350.239 52.3382 361.098C52.5049 361.506 53.181 361.32 53.0051 360.913Z" fill="#263238"/>
<path d="M53.2089 364.619C61.9243 355.651 70.8064 346.858 79.5495 337.88C79.8552 337.565 79.3643 337.074 79.0586 337.389C70.334 346.367 61.4612 355.159 52.7181 364.128C52.4032 364.452 52.894 364.943 53.2089 364.619Z" fill="#263238"/>
<path d="M79.8273 333.71C72.2601 341.016 65.3805 349.002 59.2754 357.568H60.6647C63.5546 357.432 66.3828 356.684 68.9618 355.373C71.5409 354.061 73.812 352.217 75.6246 349.961C77.4373 347.705 78.7502 345.09 79.4763 342.288C80.2024 339.487 80.3252 336.563 79.8366 333.71H79.8273Z" fill="#2563EB"/>
<path d="M43.9657 316.339C47.2196 321.632 50.2791 327.058 53.1441 332.617C53.3479 333.016 53.9499 332.664 53.7369 332.265C50.8719 326.743 47.8155 321.323 44.5677 316.005C44.3361 315.625 43.7341 316.005 43.9657 316.348V316.339Z" fill="#263238"/>
<path d="M36.1858 289.479C34.954 295.038 33.7222 302.302 33.7129 308.111C33.7037 313.92 35.4634 319.572 38.7606 323.463C42.0578 327.355 48.7171 329.022 51.3937 326.827L36.1858 289.479Z" fill="#2563EB"/>
<path d="M69.0652 367.167H36.019V373.291H69.0652V367.167Z" fill="#263238"/>
<path d="M63.7118 395.12H43.1876L39.4644 371.892H66.657L63.7118 395.12Z" fill="#263238"/>
<path opacity="0.2" d="M39.7051 373.402H66.4624L66.129 376.034H40.1311L39.7051 373.402Z" fill="black"/>
<path d="M80.6981 121.364H9.89161C4.42862 121.364 0 125.794 0 131.259V173.424C0 178.889 4.42862 183.32 9.89161 183.32H80.6981C86.1611 183.32 90.5897 178.889 90.5897 173.424V131.259C90.5897 125.794 86.1611 121.364 80.6981 121.364Z" fill="#2563EB"/>
<path d="M22.923 163.307C27.4699 160.093 31.1538 155.806 33.6482 150.827C35.3709 147.361 37.9642 140.876 33.6482 138.152C31.6477 136.892 29.0173 137.531 27.3039 138.902C25.2107 140.552 24.3308 143.229 23.6732 145.703C22.1913 151.262 20.5613 157.655 23.7288 162.918C26.3684 167.291 31.6291 168.579 36.3712 167.439C41.7615 166.142 45.7071 161.88 48.8653 157.572C50.2917 155.635 51.9958 153.439 52.0607 150.919C52.0927 150.435 52.0219 149.95 51.8529 149.495C51.6839 149.04 51.4206 148.626 51.0803 148.281C50.7399 147.935 50.3303 147.665 49.8783 147.489C49.4263 147.313 48.9422 147.235 48.4578 147.26C47.4311 147.405 46.4613 147.82 45.6476 148.463C44.8339 149.106 44.2056 149.954 43.8269 150.919C42.9754 153.14 43.0019 155.602 43.901 157.803C46.059 163.362 52.0329 165.66 57.6178 164.419C63.6565 163.075 67.8521 157.933 70.0101 152.439C70.3342 151.605 68.9913 151.244 68.6671 152.068C67.0648 156.191 64.2585 160.064 60.2018 162.047C56.1451 164.029 50.6621 163.992 47.3094 160.62C44.6512 157.961 43.1045 152.513 46.3832 149.659C47.9392 148.307 50.7548 148.223 50.6807 150.919C50.6344 153.032 49.0784 154.931 47.9021 156.562C45.2347 160.268 41.9838 163.974 37.6123 165.614C33.7686 167.031 28.9525 166.827 26.0165 163.659C22.5526 159.953 23.0527 154.31 24.0993 149.761C24.9606 146.009 26.0628 138.81 31.2216 138.884C33.8705 138.884 34.7226 141.487 34.5651 143.72C34.2651 146.102 33.4971 148.4 32.3052 150.484C29.9277 155.12 26.4718 159.117 22.2284 162.139C21.506 162.658 22.2284 163.863 22.9323 163.344L22.923 163.307Z" fill="#263238"/>
<path d="M336.62 33.4007L347.633 27.332C348.411 26.8966 347.716 25.6921 346.929 26.1276L335.916 32.1962C335.129 32.6317 335.833 33.8269 336.62 33.4007Z" fill="#263238"/>
<path d="M336.203 44.0651H354.922C355.106 44.0651 355.282 43.9918 355.413 43.8615C355.543 43.7312 355.616 43.5545 355.616 43.3702C355.616 43.1859 355.543 43.0091 355.413 42.8788C355.282 42.7485 355.106 42.6753 354.922 42.6753H336.203C336.019 42.6753 335.843 42.7485 335.712 42.8788C335.582 43.0091 335.509 43.1859 335.509 43.3702C335.509 43.5545 335.582 43.7312 335.712 43.8615C335.843 43.9918 336.019 44.0651 336.203 44.0651Z" fill="#263238"/>
<path d="M336.259 54.9789C339.223 57.8325 342.193 60.68 345.169 63.5213C345.817 64.1421 346.799 63.16 346.151 62.5392L337.241 53.9968C336.592 53.376 335.611 54.3581 336.259 54.9789Z" fill="#263238"/>
<path d="M282.133 5.6047e-06C277.567 -0.213092 256.765 0.926516 238.167 8.22742V54.3769C238.167 54.3769 238.556 79.5594 256.376 94.8654C274.196 110.171 283.097 115.388 283.097 115.388C283.097 115.388 289.839 109.893 307.89 94.8654C327.627 78.4198 326.099 54.3769 326.099 54.3769V8.26448C308.594 5.44451e-06 286.736 -0.148236 282.133 5.6047e-06Z" fill="#2563EB"/>
<path opacity="0.3" d="M282.754 106.975C275.157 101.581 267.837 95.808 260.822 89.6767C245.948 76.9001 245.077 55.3495 245.003 54.2933V13.045C256.624 9.28625 268.721 7.19926 280.929 6.84668H281.856H282.439C282.912 6.84668 283.578 6.84668 284.43 6.84668C289.284 6.84668 305.168 7.30067 319.301 12.7763V54.2933C319.437 60.9942 318.089 67.6422 315.352 73.76C312.615 79.8777 308.558 85.3134 303.473 89.6767C293.146 98.5434 286.477 103.991 282.754 106.975Z" fill="white"/>
<path d="M283.513 67.1628L262.461 51.4863L267.926 44.1298L282.05 54.6457L301.444 31.5015L308.465 37.3848L283.513 67.1628Z" fill="#407BFF"/>
<g opacity="0.3">
<path d="M283.513 67.1628L262.461 51.4863L267.926 44.1298L282.05 54.6457L301.444 31.5015L308.465 37.3848L283.513 67.1628Z" fill="black"/>
</g>
<path opacity="0.3" d="M289.895 8.95033C289.895 8.95033 278.873 68.562 265.656 77.7715C252.44 86.981 248.735 64.856 248.216 57.694C247.698 50.5321 247.438 18.2618 247.827 16.1493C248.216 14.0369 274.529 7.09731 289.895 8.95033Z" fill="white"/>
<path d="M194.303 127.599C194.442 128.238 194.878 128.692 195.229 128.525C195.456 128.401 195.632 128.201 195.728 127.962C195.824 127.722 195.834 127.456 195.757 127.21C195.637 126.571 195.174 126.126 194.831 126.283C194.603 126.406 194.424 126.604 194.328 126.845C194.231 127.086 194.223 127.353 194.303 127.599Z" fill="#263238"/>
<path d="M194.822 128.702C195.981 130.505 197.383 132.139 198.99 133.557C198.618 133.958 198.162 134.273 197.654 134.48C197.147 134.686 196.601 134.779 196.054 134.752L194.822 128.702Z" fill="#FD504E"/>
<path d="M191.284 124.514C191.236 124.515 191.189 124.506 191.144 124.489C191.1 124.471 191.059 124.445 191.025 124.412C190.953 124.339 190.913 124.241 190.913 124.138C190.913 124.036 190.953 123.938 191.025 123.865C191.428 123.409 191.934 123.055 192.501 122.835C193.068 122.614 193.68 122.532 194.285 122.596C194.37 122.629 194.44 122.69 194.486 122.768C194.531 122.847 194.548 122.939 194.534 123.029C194.52 123.118 194.476 123.201 194.408 123.262C194.341 123.323 194.255 123.359 194.164 123.365C193.684 123.318 193.2 123.387 192.752 123.566C192.304 123.745 191.906 124.028 191.59 124.393C191.551 124.434 191.503 124.466 191.45 124.487C191.397 124.508 191.341 124.517 191.284 124.514Z" fill="#263238"/>
<path d="M176.965 138.921C178.067 144.554 178.725 152.355 174.798 156.108C174.798 156.108 176.335 161.833 186.838 161.833C198.351 161.833 192.395 156.812 192.395 156.812C187.625 155.329 187.625 149.882 188.746 145.508L176.965 138.921Z" fill="#FFBAB3"/>
<path d="M172.659 130.582C174.733 138.356 175.52 142.998 180.364 146.24C187.579 151.114 196.591 145.527 196.832 137.281C197.082 129.869 193.637 118.408 185.301 116.842C183.464 116.483 181.565 116.602 179.786 117.185C178.008 117.769 176.408 118.799 175.14 120.177C173.872 121.555 172.979 123.235 172.544 125.056C172.11 126.878 172.149 128.78 172.659 130.582Z" fill="#FFBAB3"/>
<path d="M188.802 130.638C190.654 127.914 191.358 123.735 190.061 121.725C191.275 122.225 200.018 122.827 196.545 116.601C194.192 112.339 189.283 109.087 184.504 108.012C184.099 107.918 183.673 107.971 183.303 108.161C182.932 108.351 182.641 108.666 182.481 109.051C182.321 109.435 182.303 109.864 182.429 110.261C182.555 110.658 182.818 110.997 183.171 111.218C180.039 110.655 176.846 110.518 173.677 110.811C173.318 110.855 172.985 111.017 172.728 111.272C172.472 111.527 172.307 111.86 172.261 112.218C172.214 112.577 172.288 112.941 172.47 113.253C172.653 113.565 172.934 113.807 173.27 113.942C173.27 113.942 164.508 118.074 168.324 121.215C162.165 125.903 166.342 132.398 176.474 142.08C178.243 143.674 183.245 143.09 184.356 142.136C183.689 137.957 187.755 132.222 188.802 130.638Z" fill="#263238"/>
<path d="M185.746 131.036C185.991 131.989 186.426 132.883 187.025 133.665C187.623 134.446 188.372 135.1 189.228 135.585C191.34 136.512 191.599 134.084 191.182 131.768C190.812 129.656 190.256 127.942 188.524 127.136C186.505 126.079 185.051 128.729 185.746 131.036Z" fill="#FFBAB3"/>
<g opacity="0.2">
<path d="M187.496 129.183C187.189 130.04 187.216 130.981 187.572 131.819C187.927 132.656 188.584 133.33 189.413 133.705C189.494 133.746 189.588 133.756 189.676 133.734C189.765 133.712 189.842 133.659 189.895 133.584C189.939 133.503 189.951 133.407 189.926 133.317C189.902 133.228 189.844 133.151 189.765 133.102C189.11 132.824 188.575 132.322 188.255 131.685C188.085 131.325 187.989 130.934 187.973 130.536C187.957 130.138 188.021 129.741 188.163 129.369C188.32 128.952 187.644 128.766 187.496 129.183Z" fill="black"/>
</g>
<path d="M245.725 218.916L250.476 216.655L254.042 217.174L251.995 218.101L250.93 219.75L245.725 218.916Z" fill="#FFBAB3"/>
<path d="M247.929 221.501C247.929 221.501 247.374 223.993 248.624 224.41C249.874 224.827 250.217 224.41 250.217 224.41C250.217 224.41 249.383 226.217 251.05 226.263C251.834 226.314 252.62 226.314 253.403 226.263C253.403 226.263 252.569 227.449 254.514 227.931C256.459 228.412 263.776 222.52 263.776 222.52L267.731 222.798L266.805 215.386C266.805 215.386 255.987 215.59 254.95 216.22C253.912 216.85 247.929 221.501 247.929 221.501Z" fill="#B97964"/>
<path d="M318.68 161.982C318.217 162.426 312.262 163.242 307.918 166.114C307.918 166.114 307.686 159.906 307.918 152.466C308.149 145.027 305.723 134.242 316.383 132.426C316.383 132.426 324.052 126.765 333.49 133.844C342.927 140.922 339.445 162.278 337.834 167.374L318.68 161.982Z" fill="#263238"/>
<path d="M319.625 137.411C319.625 137.411 312.966 148.158 312.512 151.577C310.076 153.43 308.604 149.335 308.946 143.906C309.233 139.468 311.78 134.789 315.707 133.241C321.218 131.083 319.625 137.411 319.625 137.411Z" fill="#263238"/>
<path d="M328.692 156.293L320.847 160.536L319.236 162.139C319.633 163.284 319.894 164.472 320.014 165.679C320.134 167.179 318.745 168.319 317.661 169.292C316.115 170.061 319.097 177.177 319.097 177.177L329.285 166.642C327.368 161.982 327.868 158.22 328.692 156.293Z" fill="#B97964"/>
<path opacity="0.2" d="M320.032 166.114C322.255 165.049 324.747 163.066 324.663 160.555C324.645 159.636 324.521 158.722 324.293 157.831L319.532 163.149C319.804 164.117 319.972 165.111 320.032 166.114Z" fill="black"/>
<path d="M332.045 145.314C330.656 153.143 330.193 156.432 325.821 160.258C319.171 165.956 309.937 163.038 308.983 155.116C308.113 147.963 310.53 136.373 318.551 133.714C320.253 133.089 322.091 132.929 323.876 133.252C325.66 133.575 327.326 134.369 328.702 135.551C330.077 136.733 331.112 138.262 331.7 139.978C332.288 141.694 332.407 143.536 332.045 145.314Z" fill="#B97964"/>
<path d="M321.2 147.575C321.2 148.316 320.709 148.927 320.181 148.936C319.653 148.946 319.255 148.353 319.319 147.612C319.384 146.87 319.82 146.259 320.338 146.25C320.857 146.24 321.246 146.833 321.2 147.575Z" fill="#263238"/>
<path d="M313.716 146.639C313.716 147.352 313.299 147.973 312.79 148.01C312.28 148.047 311.863 147.51 311.863 146.787C311.83 146.485 311.904 146.18 312.074 145.927C312.243 145.675 312.497 145.49 312.79 145.407C313.299 145.37 313.716 145.916 313.716 146.639Z" fill="#263238"/>
<path d="M323.422 145.128C323.372 145.13 323.322 145.121 323.276 145.102C323.23 145.083 323.188 145.054 323.154 145.017C322.845 144.659 322.453 144.382 322.012 144.213C321.571 144.043 321.094 143.985 320.625 144.044C320.577 144.055 320.527 144.056 320.478 144.046C320.43 144.036 320.384 144.016 320.344 143.987C320.304 143.958 320.27 143.921 320.245 143.878C320.22 143.835 320.205 143.788 320.199 143.739C320.188 143.635 320.216 143.531 320.278 143.447C320.339 143.363 320.43 143.305 320.533 143.285C321.123 143.196 321.727 143.258 322.288 143.465C322.848 143.672 323.347 144.018 323.737 144.471C323.809 144.543 323.849 144.642 323.849 144.744C323.849 144.846 323.809 144.944 323.737 145.017C323.696 145.057 323.646 145.087 323.592 145.107C323.537 145.126 323.48 145.133 323.422 145.128Z" fill="#263238"/>
<path d="M311.271 142.923C311.226 142.909 311.184 142.885 311.149 142.853C311.114 142.821 311.086 142.782 311.067 142.738C311.048 142.691 311.038 142.64 311.039 142.589C311.04 142.538 311.051 142.487 311.072 142.441C311.093 142.394 311.123 142.352 311.16 142.317C311.197 142.282 311.241 142.255 311.289 142.238C311.856 141.969 312.478 141.837 313.105 141.852C313.732 141.866 314.347 142.027 314.901 142.321C314.944 142.347 314.98 142.382 315.009 142.423C315.037 142.464 315.056 142.511 315.064 142.56C315.073 142.609 315.071 142.659 315.059 142.707C315.047 142.756 315.025 142.801 314.994 142.84C314.934 142.924 314.844 142.983 314.743 143.004C314.641 143.024 314.536 143.006 314.448 142.951C314.002 142.733 313.513 142.619 313.017 142.619C312.521 142.619 312.031 142.733 311.586 142.951C311.481 142.979 311.369 142.969 311.271 142.923Z" fill="#263238"/>
<path d="M312.262 135.761C314.114 132.37 321.06 129.47 328.72 133.204C340.205 137.716 333.694 156.367 330.378 152.466C329.544 151.485 328.783 150.445 328.099 149.353C324.367 143.294 318.841 138.546 312.29 135.771L312.262 135.761Z" fill="#263238"/>
<path d="M333.888 151.948C332.931 153.339 331.463 154.295 329.804 154.607C327.674 154.959 326.877 151.512 327.766 149.474C328.182 148.561 328.909 147.827 329.817 147.402C330.725 146.978 331.755 146.891 332.721 147.158C334.685 147.723 335.102 150.187 333.888 151.948Z" fill="#B97964"/>
<path d="M315.994 146.129C315.145 147.752 314.13 149.283 312.966 150.697C312.909 150.768 312.869 150.851 312.849 150.939C312.828 151.028 312.828 151.12 312.847 151.208C312.867 151.297 312.906 151.38 312.962 151.452C313.017 151.524 313.088 151.582 313.169 151.623C313.84 151.889 314.571 151.963 315.281 151.836L315.994 146.129Z" fill="#A24E3F"/>
<path d="M320.458 146.231L318.606 145.805C318.606 145.805 319.671 147.157 320.458 146.231Z" fill="#263238"/>
<path d="M313.049 145.462L311.197 145.138C312.058 146.138 312.799 145.749 313.049 145.462Z" fill="#263238"/>
<path opacity="0.2" d="M331.11 149.048C331.424 148.959 331.76 148.994 332.05 149.145C332.339 149.297 332.56 149.554 332.666 149.863C332.897 150.539 332.453 152.077 330.378 152.466" stroke="black" stroke-width="0.5" stroke-linecap="round" stroke-linejoin="round"/>
<path d="M314.429 154.412C314.893 155.258 315.292 156.137 315.624 157.043C315.793 157.02 315.96 156.986 316.124 156.941C318.384 156.478 319.282 155.514 319.588 154.588C319.728 154.132 319.757 153.649 319.671 153.18C319.63 152.915 319.555 152.657 319.449 152.411C318.179 153.323 316.73 153.955 315.198 154.264C314.735 154.356 314.429 154.412 314.429 154.412Z" fill="#263238"/>
<path d="M315.198 154.245L315.577 155.005C317.698 154.56 319.134 153.967 319.671 153.152C319.63 152.887 319.555 152.629 319.449 152.383C318.18 153.298 316.731 153.933 315.198 154.245Z" fill="white"/>
<path d="M316.124 156.942C318.384 156.478 319.282 155.515 319.588 154.588C318.732 154.784 317.917 155.129 317.18 155.608C316.697 155.931 316.328 156.397 316.124 156.942Z" fill="#FD504E"/>
<path d="M332.304 155.088C332.304 155.475 332.19 155.853 331.975 156.174C331.76 156.496 331.455 156.746 331.098 156.894C330.741 157.042 330.348 157.081 329.969 157.006C329.59 156.93 329.242 156.744 328.968 156.471C328.695 156.197 328.509 155.849 328.434 155.47C328.358 155.09 328.397 154.697 328.545 154.34C328.693 153.983 328.943 153.678 329.265 153.463C329.586 153.248 329.964 153.133 330.35 153.133C330.869 153.133 331.366 153.339 331.732 153.706C332.099 154.073 332.304 154.57 332.304 155.088Z" fill="#407BFF"/>
<g opacity="0.2">
<path d="M316.004 134.576C322.263 140.28 329.723 144.504 337.834 146.935C337.92 146.951 338.009 146.933 338.084 146.886C338.158 146.839 338.212 146.766 338.235 146.682C338.258 146.597 338.249 146.507 338.209 146.428C338.169 146.35 338.101 146.29 338.019 146.259C330.022 143.874 322.667 139.712 316.504 134.084C316.17 133.788 315.679 134.279 316.004 134.576Z" fill="white"/>
</g>
<g opacity="0.2">
<path d="M316.976 133.807C322.981 138.688 330.244 141.772 337.926 142.701C338.371 142.701 338.371 142.053 337.926 142.006C330.425 141.093 323.333 138.081 317.467 133.316C317.124 133.028 316.624 133.519 316.976 133.807Z" fill="white"/>
</g>
<path d="M349.735 386.697L348.809 387.948L347.031 387.179L345.919 392.673L338.408 403.162C338.408 403.162 335.555 403.616 337.806 397.658C337.918 397.359 337.995 397.048 338.037 396.732C338.704 393.165 337.241 386.327 337.241 386.327L341.362 380.573C341.751 380.585 342.138 380.625 342.52 380.694C344.252 381.009 347.67 381.843 349.735 386.697Z" fill="#263238"/>
<path opacity="0.2" d="M349.735 386.697L348.809 387.948L347.031 387.179L345.919 392.673L338.408 403.162C338.408 403.162 335.555 403.616 337.806 397.658C337.918 397.359 337.995 397.048 338.037 396.732C338.704 393.165 337.241 386.327 337.241 386.327L341.362 380.573C341.751 380.585 342.138 380.625 342.52 380.694C344.252 381.009 347.67 381.843 349.735 386.697Z" fill="black"/>
<path d="M342.548 380.721C341.159 380.87 342.372 387.012 341.816 390.459C341.316 393.535 339.964 396.435 338.047 396.741C338.714 393.174 336.306 385.048 336.306 385.048L339.621 380.416C339.621 380.416 341.816 380.601 342.548 380.721Z" fill="#A24E3F"/>
<path d="M338.241 402.772H336.704L336.287 400.864L331.221 403.171H318.393C318.393 403.171 316.346 401.105 322.459 399.465C322.759 399.382 323.051 399.27 323.33 399.131C326.581 397.584 331.221 392.386 331.221 392.386H338.26C338.476 392.711 338.668 393.052 338.834 393.405C339.603 394.962 340.937 398.242 338.241 402.772Z" fill="#263238"/>
<path d="M338.834 393.396C337.908 392.349 333.675 396.935 330.582 398.501C327.803 399.891 324.7 400.502 323.33 399.094C326.58 397.547 331.758 390.478 331.758 390.478L337.417 390.644C337.417 390.644 338.51 392.729 338.834 393.396Z" fill="#B97964"/>
<path d="M322.978 327.985C319.486 319.081 315.216 310.316 310.076 303.228C331.073 247.49 330.452 222.557 330.452 222.557H305.167L302.472 231.878C302.472 231.878 296.156 255.041 294.313 268.401L289.033 298.049V298.133C288.683 304.313 290.165 310.46 293.294 315.801C296.73 321.712 302.806 328.726 306.14 335.1C310.53 343.504 314.67 351.926 318.18 359.468C321.885 367.417 325.868 382.955 327.757 387.782C329.554 387.967 334.953 385.002 336.509 382.223C336.5 382.158 331.74 350.314 322.978 327.985Z" fill="#263238"/>
<path opacity="0.2" d="M315.059 289.469C318.134 279.231 321.227 272.246 322.792 264.648C322.792 262.869 317.235 256.411 314.262 253.354C314.262 253.354 310.65 267.872 315.059 289.469Z" fill="black"/>
<path opacity="0.2" d="M318.17 359.384C321.875 367.334 325.858 382.871 327.747 387.698C329.544 387.884 334.944 384.919 336.5 382.139C336.5 382.139 331.739 350.295 322.977 327.938C321.199 337.185 319.208 348.85 318.17 359.384Z" fill="black"/>
<path d="M311.512 223.039C313.596 230.618 321.811 289.674 321.468 298.475C321.468 298.475 327.859 374.32 326.896 391.219L339.093 391.831C339.093 391.831 346.382 332.302 342.205 299.624C341.844 295.362 345.595 267.576 346.188 256.504C347.596 229.877 336.852 222.548 336.852 222.548L311.512 223.039Z" fill="#263238"/>
<path opacity="0.2" d="M322.58 199.005C320.727 216.951 318.792 234.87 326.979 255.29C327.112 255.893 327.465 256.423 327.969 256.78C328.472 257.136 329.09 257.292 329.702 257.218L346.225 255.717L346.318 251.881L332.082 215.515L322.58 199.005Z" fill="black"/>
<path d="M244.725 218.351L250.449 217.758L250.958 221.816L247.735 227.375C247.735 227.375 243.354 227.153 242.521 223.669L244.725 218.351Z" fill="#FFBAB3"/>
<path d="M258.238 225.29L253.125 227.921C252.586 228.188 251.975 228.273 251.384 228.162L247.679 227.44L250.912 221.881L253.579 220.241L258.312 223.446C258.548 223.62 258.706 223.881 258.751 224.17C258.796 224.46 258.725 224.756 258.553 224.994C258.467 225.112 258.36 225.212 258.238 225.29Z" fill="#FFBAB3"/>
<path d="M187.061 398.779L195.405 397.093L195.452 377.488L187.116 379.165L187.061 398.779Z" fill="#FFBAB3"/>
<path d="M197.276 393.304H194.1C193.741 393.309 193.388 393.394 193.067 393.555C192.747 393.715 192.466 393.946 192.247 394.23C190.302 396.602 188.969 395.685 187.07 393.424C185.801 393.267 185.403 394.656 185.282 395.027L182.55 403.264C182.493 403.426 182.471 403.598 182.484 403.769C182.497 403.941 182.546 404.107 182.627 404.259C182.708 404.41 182.819 404.544 182.955 404.65C183.09 404.756 183.245 404.833 183.411 404.876C183.541 404.913 183.675 404.932 183.81 404.931L194.313 405.024L209.02 405.163C213.031 405.163 214.031 401.346 212.392 400.975C204.982 399.345 199.86 397.204 197.656 395.129C197.276 394.693 197.712 394.434 197.276 393.304Z" fill="#263238"/>
<path d="M204.103 395.722C204.275 395.61 204.419 395.458 204.52 395.279C204.622 395.1 204.679 394.899 204.686 394.693C204.704 394.59 204.69 394.484 204.647 394.388C204.605 394.292 204.534 394.212 204.445 394.156C203.519 393.47 199.425 395.212 198.971 395.416C198.947 395.424 198.924 395.437 198.904 395.455C198.885 395.472 198.87 395.494 198.86 395.518C198.851 395.538 198.847 395.56 198.847 395.581C198.847 395.603 198.851 395.625 198.86 395.645C198.868 395.665 198.881 395.683 198.897 395.698C198.913 395.713 198.932 395.724 198.953 395.731C199.928 395.962 200.924 396.095 201.926 396.129C202.676 396.213 203.434 396.071 204.103 395.722ZM204.186 394.48C204.226 394.502 204.257 394.537 204.274 394.579C204.291 394.622 204.293 394.669 204.278 394.712C204.263 394.854 204.217 394.992 204.143 395.115C204.069 395.238 203.97 395.344 203.852 395.425C202.926 396.065 200.75 395.768 199.592 395.546C201.268 394.869 203.649 394.11 204.186 394.48Z" fill="#407BFF"/>
<path d="M199.129 395.814C200.342 395.351 202.926 393.498 202.833 392.507C202.833 392.294 202.676 392.044 202.139 391.969C199.962 391.71 198.869 395.444 198.86 395.601C198.851 395.632 198.851 395.665 198.859 395.696C198.867 395.727 198.883 395.755 198.906 395.777C198.927 395.787 198.949 395.791 198.971 395.791C198.994 395.791 199.016 395.787 199.036 395.777L199.129 395.814ZM202.055 392.275C202.454 392.322 202.454 392.461 202.444 392.507C202.537 393.118 200.648 394.656 199.323 395.286C199.629 394.415 200.527 392.247 201.907 392.257L202.055 392.275Z" fill="#407BFF"/>
<path d="M199.406 395.675C198.856 395.742 198.326 395.921 197.848 396.201C197.37 396.482 196.954 396.858 196.628 397.306" stroke="#407BFF" stroke-width="0.5" stroke-linecap="round" stroke-linejoin="round"/>
<path d="M201.324 397.111C200.774 397.179 200.244 397.359 199.766 397.64C199.289 397.92 198.873 398.295 198.545 398.742" stroke="#407BFF" stroke-width="0.5" stroke-linecap="round" stroke-linejoin="round"/>
<path d="M203.76 398.325C203.209 398.391 202.677 398.571 202.199 398.853C201.72 399.136 201.306 399.514 200.981 399.965" stroke="#407BFF" stroke-width="0.5" stroke-linecap="round" stroke-linejoin="round"/>
<path d="M131.907 392.099L140.335 393.341L147.013 374.903L138.603 373.671L131.907 392.099Z" fill="#FFBAB3"/>
<path d="M143.391 390.422L140.409 389.32C140.074 389.198 139.717 389.154 139.362 389.189C139.008 389.224 138.666 389.338 138.362 389.523C135.741 391.098 134.787 389.783 133.731 387.003C132.592 386.438 131.74 387.605 131.508 387.93L126.146 394.758C126.038 394.892 125.959 395.046 125.914 395.212C125.869 395.377 125.859 395.551 125.884 395.72C125.909 395.89 125.97 396.053 126.061 396.198C126.152 396.344 126.272 396.468 126.414 396.565C126.52 396.646 126.639 396.709 126.766 396.75L136.621 400.401L150.412 405.506C154.181 406.905 156.413 403.653 155.043 402.726C148.671 398.696 144.521 394.934 143.151 392.229C142.891 391.719 143.401 391.617 143.391 390.422Z" fill="#263238"/>
<path d="M148.976 394.99C149.178 394.956 149.369 394.872 149.531 394.746C149.693 394.62 149.82 394.455 149.902 394.267C149.96 394.179 149.991 394.076 149.991 393.97C149.991 393.865 149.96 393.762 149.902 393.674C149.226 392.747 144.817 392.97 144.345 393.007C144.293 393.007 144.244 393.027 144.206 393.062C144.19 393.078 144.177 393.097 144.168 393.117C144.159 393.138 144.155 393.16 144.155 393.183C144.155 393.205 144.159 393.228 144.168 393.248C144.177 393.269 144.19 393.288 144.206 393.303C145.047 393.844 145.937 394.303 146.864 394.675C147.523 394.982 148.256 395.091 148.976 394.99ZM149.476 393.859C149.503 393.894 149.518 393.936 149.518 393.98C149.518 394.023 149.503 394.066 149.476 394.1C149.414 394.23 149.325 394.345 149.215 394.438C149.105 394.531 148.976 394.599 148.837 394.638C147.744 394.925 145.799 393.906 144.78 393.303C146.605 393.239 149.115 393.322 149.476 393.859Z" fill="#407BFF"/>
<path d="M144.225 393.387C145.531 393.387 148.587 392.461 148.856 391.534C148.911 391.34 148.856 391.052 148.383 390.802C146.429 389.82 144.132 392.961 144.076 393.109C144.055 393.135 144.044 393.168 144.044 393.202C144.044 393.236 144.055 393.268 144.076 393.294C144.113 393.303 144.151 393.303 144.188 393.294L144.225 393.387ZM148.179 391.052C148.541 391.228 148.494 391.358 148.476 391.404C148.346 392.007 146.058 392.813 144.586 392.97C145.169 392.257 146.753 390.515 148.05 390.987L148.179 391.052Z" fill="#407BFF"/>
<path d="M144.577 393.359C144.036 393.238 143.475 393.229 142.931 393.332C142.386 393.436 141.868 393.65 141.409 393.962" stroke="#407BFF" stroke-width="0.5" stroke-linecap="round" stroke-linejoin="round"/>
<path d="M145.892 395.36C145.351 395.239 144.791 395.23 144.246 395.333C143.701 395.437 143.183 395.651 142.725 395.963" stroke="#407BFF" stroke-width="0.5" stroke-linecap="round" stroke-linejoin="round"/>
<path d="M147.744 397.325C147.205 397.201 146.645 397.19 146.102 397.294C145.558 397.397 145.042 397.613 144.586 397.927" stroke="#407BFF" stroke-width="0.5" stroke-linecap="round" stroke-linejoin="round"/>
<path d="M190.525 221.686C190.525 221.686 181.467 277.619 176.502 298.586C171.056 321.499 146.337 389.134 146.337 389.134L129.878 387.504C129.878 387.504 148.013 332.701 152.579 300.625C156.089 275.989 165.11 221.686 165.11 221.686H190.525Z" fill="#2563EB"/>
<path opacity="0.3" d="M185.236 241.615C175.641 243.469 176.419 275.22 177.567 293.639C180.29 280.622 184.625 259.627 187.404 241.875C186.73 241.55 185.967 241.458 185.236 241.615Z" fill="black"/>
<path d="M206.131 221.686C206.131 221.686 209.502 276.35 208.585 298.716C207.659 321.934 199.101 391.367 199.101 391.367L183.93 390.265C183.93 390.265 183.467 323.259 182.828 300.449C182.133 275.6 178.651 221.695 178.651 221.695L206.131 221.686Z" fill="#2563EB"/>
<path d="M173.594 160.054C172.668 158.628 172.992 154.273 174.076 153.569C175.817 152.429 183.004 152.55 192.534 155.338C191.247 159.498 193.34 161.824 193.34 161.824L173.594 160.054Z" fill="#2563EB"/>
<path d="M165.87 157.859C165.87 157.859 138.084 189.777 141.178 204.879C144.271 219.981 164.462 228.357 164.462 228.357L168.741 220.834C168.741 220.834 155.96 210.29 154.413 204.101C152.866 197.912 166.351 181.513 166.351 181.513L165.87 157.859Z" fill="#263238"/>
<path opacity="0.2" d="M165.61 170.95C162.211 174.313 161.229 181.188 161.6 185.876C162.434 184.459 163.323 183.032 164.24 181.642C165.61 179.511 167.018 177.436 168.537 175.342L169.787 173.609C169.871 173.239 169.945 172.868 170.01 172.507L165.61 170.95Z" fill="black"/>
<path d="M206.77 165.391C208.316 173.304 210.187 199.311 207.798 230.683L162.619 230.414C162.359 224.799 167.361 190.806 163.1 163.705C162.991 162.935 163.036 162.152 163.232 161.399C163.428 160.647 163.772 159.941 164.244 159.323C164.715 158.705 165.305 158.187 165.978 157.798C166.652 157.41 167.395 157.16 168.167 157.062H168.278C170.482 156.775 173.048 156.497 175.576 156.386C181.292 156.062 187.022 156.062 192.738 156.386C194.59 156.553 196.443 156.821 198.147 157.099C200.255 157.443 202.209 158.421 203.749 159.902C205.29 161.383 206.343 163.297 206.77 165.391Z" fill="#263238"/>
<path opacity="0.2" d="M206.538 173.257L199.407 175.027C198.869 181.689 203.259 189.23 207.65 194.993C207.692 187.733 207.321 180.476 206.538 173.257Z" fill="black"/>
<path d="M196.851 166.503C197.323 167.531 208.789 198.644 218.153 209.78C226.711 219.972 242.113 225.883 242.113 225.883L245.373 216.618C245.373 216.618 229.628 206.009 225.571 201.08C222.367 197.226 212.605 174.332 208.558 164.631C207.783 162.742 206.55 161.075 204.97 159.781C203.39 158.487 201.513 157.606 199.509 157.219C198.917 157.104 198.315 157.051 197.712 157.062L196.851 166.503Z" fill="#263238"/>
<path d="M262.905 215.58L288.042 208.715C288.042 208.715 304.806 176.037 308.418 173.535C312.03 171.034 318.532 176.917 316.911 182.754C315.799 186.747 299.23 217.22 295.609 219.759C291.987 222.298 264.285 225.077 264.285 225.077L262.905 215.58Z" fill="#2563EB"/>
<path d="M335.574 231.933C336.305 223.539 339.686 202.582 344.835 186.442C346.503 181.188 340.381 175.944 340.381 175.944C340.381 175.944 338.176 173.656 337.463 173.573C336.75 173.489 335.898 173.406 335.101 173.341C333.517 173.202 330.044 169.107 329.285 163.548C329.192 162.853 324.7 165.716 319.551 166.105C320.199 168.44 316.485 170.228 315.587 172.859C315.151 172.905 311.53 173.174 311.104 173.22C311.104 173.22 303.435 182.208 303.018 188.554C302.796 192.093 301.083 193.622 301.268 202.1C301.268 207.853 303.417 223.521 303.796 231.618L335.574 231.933Z" fill="#407BFF"/>
<path opacity="0.7" d="M335.574 231.933C336.305 223.539 339.686 202.582 344.835 186.442C346.503 181.188 340.381 175.944 340.381 175.944C340.381 175.944 338.176 173.656 337.463 173.573C336.75 173.489 335.898 173.406 335.101 173.341C333.517 173.202 330.044 169.107 329.285 163.548C329.192 162.853 324.7 165.716 319.551 166.105C320.199 168.44 316.485 170.228 315.587 172.859C315.151 172.905 311.53 173.174 311.104 173.22C311.104 173.22 303.435 182.208 303.018 188.554C302.796 192.093 301.083 193.622 301.268 202.1C301.268 207.853 303.417 223.521 303.796 231.618L335.574 231.933Z" fill="white"/>
<path d="M317.754 170.08C317.754 170.08 307.566 183.051 304.834 192.788C303.028 199.2 306.584 217.665 306.177 222.548C305.491 230.599 301.935 240.448 297.323 254.883L294.275 254.448L302.667 222.511C302.667 222.511 298.786 198.422 299.823 192.418C300.861 186.414 309.261 173.183 309.261 173.183L313.216 171.923L317.754 170.08Z" fill="#407BFF"/>
<path d="M304.574 203.73C303.464 200.31 302.944 196.726 303.037 193.131C303.38 188.035 303.463 184.246 303.463 184.246L309.233 179.975L308.474 174.777C308.474 174.777 311.252 173.063 313.846 171.312C315.615 170.117 318.893 167.763 319.347 167.911C319.347 167.911 304.787 187.109 304.713 194.78C304.649 202.1 304.574 203.73 304.574 203.73Z" fill="#407BFF"/>
<path opacity="0.2" d="M304.574 203.73C303.464 200.31 302.944 196.726 303.037 193.131C303.38 188.035 303.463 184.246 303.463 184.246L309.233 179.975L308.474 174.777C308.474 174.777 311.252 173.063 313.846 171.312C315.615 170.117 318.893 167.763 319.347 167.911C319.347 167.911 304.787 187.109 304.713 194.78C304.649 202.1 304.574 203.73 304.574 203.73Z" fill="black"/>
<path opacity="0.2" d="M301.157 212.078C301.157 212.078 299.879 195.401 299.823 192.417C299.768 189.434 294.998 210.558 296.98 218.286L301.157 212.078Z" fill="black"/>
<path d="M404 291.795L403.074 295.575L356.607 309.584L355.394 306.054L404 291.795Z" fill="#407BFF"/>
<path opacity="0.2" d="M404 291.795L403.074 295.575L356.607 309.584L355.394 306.054L404 291.795Z" fill="black"/>
<path d="M377.326 261.471C377.326 261.471 373.288 255.115 368.008 256.328C362.729 257.542 362.238 266.066 362.238 266.066L365.174 265.14C365.174 265.14 364.35 258.923 368.101 258.117C371.852 257.31 375.251 262.378 375.251 262.378L376.937 261.535" fill="#263238"/>
<path d="M404 291.795L402.5 287.635L391.608 257.496L346.929 269.957L355.394 306.054L404 291.795Z" fill="#2563EB"/>
<path d="M367.48 247.582C368.147 247.814 371.861 252.474 372.593 253.79C373.325 255.105 373.399 255.958 372.806 256.393C372.372 256.759 371.881 257.05 371.352 257.255C371.176 257.255 371.954 258.617 370.907 259.265C369.861 259.914 369.333 259.775 369.333 259.775C369.333 259.775 369.555 261.748 368.203 262.258C367.502 262.507 366.734 262.491 366.045 262.212C365.823 262.295 364.665 259.988 364.665 259.988L363.063 262.369C362.508 261.74 362.041 261.039 361.673 260.284C360.979 258.923 361.108 255.115 361.108 255.115L361.896 251.724L360.793 246.804C360.793 246.804 366.721 246.127 366.767 246.266C366.814 246.405 367.48 247.582 367.48 247.582Z" fill="#B97964"/>
<path opacity="0.2" d="M391.608 257.496C391.608 257.496 388.514 276.563 375.538 277.666C362.563 278.768 346.929 269.957 346.929 269.957" fill="black"/>
<path d="M340.631 172.933C342.395 173.163 344.074 173.832 345.512 174.879C346.951 175.927 348.104 177.319 348.864 178.928C350.8 182.782 364.998 236.371 368.601 246.09L359.488 250.927L339.028 193.224L340.631 172.933Z" fill="#2563EB"/>
<path d="M339.63 212.625L347.623 179.483C348.79 172.933 335.583 171.228 335.583 171.228L330.026 170.533C330.026 170.533 322.403 190.046 321.875 207.242C321.347 224.438 331.508 254.447 331.508 254.447L353.736 252.122L339.63 212.625Z" fill="#2563EB"/>
<path d="M335.777 170.663C335.777 170.663 331.656 167.67 329.859 166.207C329.859 166.207 322.45 184.44 322.765 200.552L334.805 183.606L331.786 178.696L335.777 170.663Z" fill="#407BFF"/>
<path opacity="0.2" d="M335.777 170.663C335.777 170.663 331.656 167.67 329.859 166.207C329.859 166.207 322.45 184.44 322.765 200.552L334.805 183.606L331.786 178.696L335.777 170.663Z" fill="black"/>
<path opacity="0.2" d="M342.168 202.09L339.028 193.224L339.797 211.93L342.168 202.09Z" fill="black"/>
</svg>
